<?xml version="1.0" standalone="no"?>
<!DOCTYPE svg PUBLIC "-//W3C//DTD SVG 20010904//EN"
 "http://www.w3.org/TR/2001/REC-SVG-20010904/DTD/svg10.dtd">
<svg version="1.0" xmlns="http://www.w3.org/2000/svg"
 width="867.000000pt" height="867.000000pt" viewBox="0 0 867.000000 867.000000"
 preserveAspectRatio="xMidYMid meet">
<metadata>
Created by potrace 1.14, written by Peter Selinger 2001-2017
</metadata>
<g transform="translate(0.000000,867.000000) scale(0.100000,-0.100000)"
fill="#000000" stroke="none">
<path d="M2024 7653 c3 -324 8 -1002 11 -1508 3 -506 7 -1071 10 -1255 3 -184
8 -894 11 -1578 4 -683 11 -1245 15 -1248 6 -3 805 456 838 483 5 3 1 1516 -4
1542 -1 9 -6 618 -10 1353 l-7 1338 138 -79 c77 -43 657 -372 1289 -731 633
-359 1267 -719 1410 -800 143 -81 388 -220 544 -309 157 -89 290 -160 298
-159 17 4 832 482 833 488 0 3 -269 158 -598 344 -328 187 -1159 659 -1847
1049 -687 390 -1349 766 -1470 834 -121 69 -290 165 -375 213 -85 49 -362 205
-614 349 -252 144 -463 261 -469 261 -7 0 -8 -197 -3 -587z"/>
<path d="M2967 6623 c-2 -4 -1 -226 2 -493 l6 -484 1080 -613 c594 -337 1419
-806 1833 -1040 413 -235 751 -431 750 -435 -2 -4 -266 -162 -588 -351 -1224
-719 -2279 -1338 -2640 -1550 -206 -121 -382 -227 -390 -236 -14 -14 -15 -73
-12 -493 2 -307 7 -478 14 -478 9 0 158 87 1713 1000 391 229 1070 628 1510
887 2227 1307 2106 1235 2088 1248 -10 7 -171 99 -358 205 -1009 572 -4916
2790 -4962 2817 -23 13 -43 20 -46 16z"/>
<path d="M1110 6258 c0 -317 9 -1608 24 -3453 3 -363 9 -1047 12 -1520 4 -473
7 -861 8 -862 1 -1 130 73 286 165 157 92 1358 797 2668 1567 2105 1235 2382
1400 2366 1412 -23 17 -804 460 -824 468 -10 3 -168 -84 -405 -223 -577 -339
-2476 -1453 -2890 -1697 -198 -117 -361 -211 -361 -211 -3 2 -14 1363 -20
2386 -4 613 -8 1122 -10 1130 -1 8 -3 171 -3 362 l-1 347 -162 92 c-151 86
-664 376 -680 386 -5 2 -8 -155 -8 -349z"/>
</g>
</svg>
